<?xml version="1.0" standalone="no"?>
<!DOCTYPE svg PUBLIC "-//W3C//DTD SVG 20010904//EN"
 "http://www.w3.org/TR/2001/REC-SVG-20010904/DTD/svg10.dtd">
<svg version="1.0" xmlns="http://www.w3.org/2000/svg"
 width="563.000000pt" height="422.000000pt" viewBox="0 0 563.000000 422.000000"
 preserveAspectRatio="xMidYMid meet">

<g transform="translate(0.000000,422.000000) scale(0.100000,-0.100000)"
fill="#000000" stroke="none">
<path d="M2367 2950 c-283 -34 -526 -215 -647 -484 -80 -177 -92 -393 -32
-576 89 -269 306 -477 582 -556 89 -25 298 -26 390 -1 80 22 208 82 300 141
l70 46 0 335 0 335 -295 0 -295 0 0 -40 0 -40 255 0 255 0 -2 -276 -3 -276
-95 -54 c-52 -30 -131 -66 -175 -81 -70 -23 -97 -26 -210 -27 -120 0 -137 3
-220 31 -176 61 -314 168 -406 317 -70 115 -100 214 -107 353 -6 140 13 234
73 358 95 198 261 335 476 395 89 24 249 27 354 5 94 -20 241 -93 308 -155
l54 -49 29 30 29 30 -35 30 c-64 55 -177 126 -245 153 -122 49 -282 71 -408
56z"/>
<path d="M3680 2135 l0 -825 205 0 205 0 0 305 0 305 43 0 42 0 155 -291 c85
-161 160 -298 165 -305 8 -12 52 -14 236 -12 l227 3 -157 292 c-86 160 -159
294 -162 297 -8 8 -69 -14 -69 -24 0 -5 54 -110 120 -234 66 -124 123 -232
126 -241 6 -14 -9 -15 -131 -13 l-138 3 -161 300 -161 300 -108 3 -107 3 0
-306 0 -305 -125 0 -125 0 0 785 0 785 -40 0 -40 0 0 -825z"/>
<path d="M3842 2209 l3 -754 35 0 35 0 5 710 5 710 235 -1 c205 -2 245 -5 314
-23 186 -49 291 -160 318 -335 14 -89 1 -199 -32 -274 -58 -131 -196 -221
-366 -238 -36 -4 -66 -10 -69 -14 -2 -3 60 -125 139 -271 l143 -264 47 -3 c27
-2 46 0 43 5 -2 4 -59 111 -127 237 -131 245 -130 238 -61 251 53 10 170 68
217 109 54 46 101 120 127 199 16 48 20 89 20 182 1 104 -3 129 -25 193 -44
123 -129 212 -253 267 -109 49 -170 57 -473 62 l-282 5 2 -753z"/>
<path d="M2388 2789 c-262 -28 -481 -215 -556 -474 -42 -144 -29 -317 33 -454
168 -368 645 -506 960 -280 l45 33 -2 210 -3 211 -212 3 -213 2 0 -120 0 -120
95 0 c94 0 95 0 95 -25 0 -36 -86 -60 -192 -52 -352 24 -509 464 -253 706 152
144 371 155 538 28 26 -21 51 -37 55 -37 5 0 44 39 87 86 l79 87 -46 42 c-123
112 -329 174 -510 154z m225 -94 c61 -16 158 -61 195 -91 l23 -19 -29 -29 -30
-28 -84 41 c-177 86 -367 69 -521 -47 -239 -182 -254 -554 -31 -751 150 -132
348 -166 526 -89 l48 20 0 89 0 89 -95 0 -95 0 0 35 0 35 135 0 136 0 -3 -152
-3 -153 -75 -38 c-97 -49 -213 -66 -325 -49 -233 36 -413 196 -480 425 -19 67
-22 210 -5 282 22 89 77 191 141 259 117 125 253 185 419 186 53 0 121 -7 153
-15z"/>
<path d="M4010 2671 l0 -119 183 -4 c205 -4 238 -13 262 -72 23 -53 1 -102
-58 -133 -38 -19 -176 -34 -248 -26 l-59 6 0 68 0 69 -40 0 -40 0 0 -115 0
-115 109 0 c278 0 414 58 422 180 5 85 0 101 -44 145 -55 55 -91 65 -264 72
l-143 6 0 38 0 39 140 0 c165 0 224 -11 287 -53 94 -63 129 -154 112 -284 -22
-161 -158 -223 -491 -223 l-128 0 0 -40 0 -40 123 0 c307 0 465 49 533 165 36
62 45 99 45 195 1 109 -25 182 -85 244 -92 94 -173 116 -428 116 l-188 0 0
-119z"/>
<path d="M871 2393 c-35 -43 -7 -93 51 -93 18 0 33 8 44 25 14 21 24 25 69 25
48 0 55 -3 79 -35 l27 -35 137 0 c92 0 132 3 122 10 -8 5 -69 10 -134 10
l-120 0 -32 35 c-28 31 -37 35 -84 35 -44 0 -55 4 -72 25 -26 33 -61 32 -87
-2z m70 7 c23 -13 26 -62 3 -80 -24 -21 -68 -1 -72 31 -3 26 19 59 39 59 6 0
19 -5 30 -10z"/>
<path d="M1032 2234 c-26 -18 -30 -65 -6 -88 24 -25 71 -20 90 9 16 25 18 25
158 25 105 1 136 3 123 11 -12 7 -66 10 -143 8 -68 -2 -124 -1 -124 4 0 14
-40 47 -58 47 -10 0 -28 -7 -40 -16z m68 -14 c25 -25 25 -32 2 -60 -25 -31
-69 -21 -78 17 -5 20 -2 31 16 45 28 23 35 23 60 -2z"/>
<path d="M746 2128 c-21 -29 -20 -40 5 -72 27 -34 54 -33 89 4 19 21 37 30 59
30 26 0 34 -6 51 -40 l20 -40 75 0 c62 0 79 4 95 20 11 11 20 25 20 30 0 6 49
10 128 10 86 0 122 3 112 10 -8 5 -63 10 -122 10 l-107 0 -23 -30 c-21 -29
-25 -30 -98 -30 l-75 0 -19 35 c-17 32 -23 35 -63 35 -23 0 -43 4 -43 9 0 19
-32 41 -60 41 -18 0 -34 -8 -44 -22z m82 0 c34 -34 -14 -102 -56 -79 -28 15
-35 40 -17 67 17 26 53 32 73 12z"/>
<path d="M1241 1945 l-20 -35 -105 0 c-100 0 -104 1 -120 25 -21 32 -80 35
-96 6 -17 -32 -12 -69 12 -85 33 -23 53 -20 81 14 26 30 26 30 131 30 l104 0
22 35 c20 33 23 34 93 38 l72 3 -77 2 -76 2 -21 -35z m-256 -19 c30 -45 -20
-91 -64 -59 -23 16 -28 52 -9 71 20 20 56 14 73 -12z"/>
</g>
</svg>
